#N canvas 87 -1094 1258 810 12;
#X obj 16 34 inlet~ inL-\$1;
#X obj 126 34 inlet~ inR-\$1;
#X obj 243 31 r notesIn-\$1;
#X obj 634 20 r auxIn-\$1;
#X obj 633 43 r expIn-\$1;
#X obj 633 68 r fsIn-\$1;
#X obj 344 36 r ctrlIn-\$1;
#X obj 424 582 s notesOut-\$1;
#X obj 530 582 s ctrlOut-\$1;
#X obj 212 594 outlet~ outL-\$1;
#X obj 234 565 outlet~ outR-\$1;
#X obj 370 260 list prepend all;
#X obj 370 284 list trim;
#X obj 374 133 r knob1-\$1;
#X obj 620 135 r knob2-\$1;
#X obj 212 462 clone -s 1 voice~ 6 \$1;
#X text 460 133 Sustain 500-3000ms;
#X obj 374 180 * 2500;
#X obj 374 209 + 500;
#X text 700 135 Wave shape;
#X obj 620 250 list prepend all;
#X obj 620 274 list trim;
#X obj 620 170 expr pow(($f1*0.8)+ 0.7 \, 8);
#X obj 872 134 r knob3-\$1;
#X obj 872 164 * 900;
#X obj 872 193 + 100;
#X obj 872 226 v release-\$1;
#X obj 213 296 poly 6 1;
#X obj 213 325 pack 0 0 0;
#X obj 212 506 *~ 0.2;
#X text 960 134 Release;
#X connect 2 0 7 0;
#X connect 2 0 27 0;
#X connect 11 0 12 0;
#X connect 12 0 15 1;
#X connect 13 0 17 0;
#X connect 14 0 22 0;
#X connect 15 0 29 0;
#X connect 17 0 18 0;
#X connect 18 0 11 0;
#X connect 20 0 21 0;
#X connect 21 0 15 2;
#X connect 22 0 20 0;
#X connect 23 0 24 0;
#X connect 24 0 25 0;
#X connect 25 0 26 0;
#X connect 27 0 28 0;
#X connect 27 1 28 1;
#X connect 27 2 28 2;
#X connect 28 0 15 0;
#X connect 29 0 10 0;
#X connect 29 0 9 0;
