#N canvas 132 53 1258 807 12;
#X obj 16 34 inlet~ inL-\$1;
#X obj 126 34 inlet~ inR-\$1;
#X obj 243 31 r notesIn-\$1;
#X obj 634 20 r auxIn-\$1;
#X obj 633 43 r expIn-\$1;
#X obj 633 68 r fsIn-\$1;
#X obj 344 36 r ctrlIn-\$1;
#X obj 475 892 s notesOut-\$1;
#X obj 581 892 s ctrlOut-\$1;
#X obj 313 904 outlet~ outL-\$1;
#X obj 335 875 outlet~ outR-\$1;
#X obj 330 250 list prepend all;
#X obj 330 274 list trim;
#X obj 334 123 r knob1-\$1;
#X obj 500 145 r knob2-\$1;
#X obj 143 592 clone -s 1 voice~ 6 \$1;
#N canvas 348 68 826 778 poly 0;
#X obj 60 50 inlet;
#X text 130 50 Note \, velocity;
#X text 290 50 Output the results of poly \, and the number of active
notes., f 34;
#X obj 60 218 pack 0 0 0;
#X obj 60 566 unpack f f f;
#X obj 60 612 pack 0 0 0 0;
#X obj 286 376 route 1 2 3 4 5 6;
#X obj 275 424 > 0;
#X obj 243 536 expr $f2 + $f3 + $f4 + $f5 + $f6 + $f7;
#X obj 305 424 > 0;
#X obj 335 424 > 0;
#X obj 365 424 > 0;
#X obj 395 424 > 0;
#X obj 425 424 > 0;
#X obj 231 282 t b a;
#X obj 60 247 t a a;
#X msg 186 149 clear;
#X obj 197 120 r loadbang-s1;
#X obj 270 316 unpack f f f;
#X obj 270 345 pack f f;
#X obj 60 641 outlet;
#X obj 243 640 outlet;
#X obj 60 190 poly 6 1;
#X connect 0 0 22 0;
#X connect 3 0 15 0;
#X connect 4 0 5 0;
#X connect 4 1 5 1;
#X connect 4 2 5 2;
#X connect 5 0 20 0;
#X connect 6 0 7 0;
#X connect 6 1 9 0;
#X connect 6 2 10 0;
#X connect 6 3 11 0;
#X connect 6 4 12 0;
#X connect 6 5 13 0;
#X connect 7 0 8 1;
#X connect 8 0 21 0;
#X connect 9 0 8 2;
#X connect 10 0 8 3;
#X connect 11 0 8 4;
#X connect 12 0 8 5;
#X connect 13 0 8 6;
#X connect 14 0 8 0;
#X connect 14 1 18 0;
#X connect 15 0 4 0;
#X connect 15 1 14 0;
#X connect 16 0 22 0;
#X connect 17 0 16 0;
#X connect 18 0 19 0;
#X connect 18 2 19 1;
#X connect 19 0 6 0;
#X connect 22 0 3 0;
#X connect 22 1 3 1;
#X connect 22 2 3 2;
#X restore 190 420 pd poly;
#X obj 886 439 key;
#X obj 886 468 pack f 1;
#X obj 980 441 keyup;
#X obj 980 470 pack f 0;
#X obj 320 820 /~;
#X text 437 616 Modify volume by number of active voices \, and ramp
it as that seems to help avoid glitches., f 26;
#X obj 340 782 vline~;
#X obj 340 670 t f b;
#X obj 340 630 max 1;
#X text 334 96 Sustain 500-3000ms;
#X obj 334 170 * 2500;
#X obj 334 199 + 500;
#X text 500 110 Wave shape;
#X obj 500 250 list prepend all;
#X obj 500 274 list trim;
#X obj 500 170 expr pow(($f1*0.8)+ 0.7 \, 8);
#X obj 852 80 r knob3-\$1;
#X obj 852 138 osc~;
#X text 950 80 Frequency modulation;
#X obj 910 110 * 900;
#X obj 910 139 + 100;
#X obj 910 172 v release-\$1;
#X obj 368 700 v release-\$1;
#X obj 480 780 print MODULE_POLY_REL;
#X obj 368 729 t a a;
#X obj 852 110 10;
#X obj 850 170 *~ 4;
#X connect 2 0 7 0;
#X connect 2 0 16 0;
#X connect 11 0 12 0;
#X connect 12 0 15 1;
#X connect 13 0 27 0;
#X connect 14 0 32 0;
#X connect 15 0 21 0;
#X connect 16 0 15 0;
#X connect 16 1 25 0;
#X connect 17 0 18 0;
#X connect 19 0 20 0;
#X connect 21 0 10 0;
#X connect 21 0 9 0;
#X connect 23 0 21 1;
#X connect 24 0 23 0;
#X connect 24 1 39 0;
#X connect 25 0 24 0;
#X connect 27 0 28 0;
#X connect 28 0 11 0;
#X connect 30 0 31 0;
#X connect 31 0 15 2;
#X connect 32 0 30 0;
#X connect 33 0 36 0;
#X connect 33 0 42 0;
#X connect 34 0 43 0;
#X connect 36 0 37 0;
#X connect 37 0 38 0;
#X connect 39 0 41 0;
#X connect 41 0 23 1;
#X connect 41 1 40 0;
#X connect 42 0 34 0;
#X connect 43 0 15 3;
