#N canvas 60 -1109 1256 800 12;
#X obj 456 256 i;
#X obj 456 226 + 0.4999;
#X obj 16 34 inlet~ inL-\$1;
#X obj 126 34 inlet~ inR-\$1;
#X obj 243 31 r notesIn-\$1;
#X obj 634 20 r auxIn-\$1;
#X obj 633 43 r expIn-\$1;
#X obj 633 68 r fsIn-\$1;
#X obj 344 36 r ctrlIn-\$1;
#X obj 475 842 s notesOut-\$1;
#X obj 581 842 s ctrlOut-\$1;
#X obj 313 854 outlet~ outL-\$1;
#X obj 335 825 outlet~ outR-\$1;
#X obj 295 488 list prepend all;
#X obj 295 512 list trim;
#X obj 460 187 * 3;
#N canvas 4 49 1061 655 controls 0;
#X obj 178 154 r \$1-loadbang;
#X obj 152 501 outlet;
#X msg 122 293 gain2 0.8;
#X msg 456 296 att 0.01;
#X msg 542 355 sus 0.8;
#X msg 501 323 dec 0.1;
#X msg 561 376 rel 0.01;
#X msg 73 266 gain1 1;
#X msg 163 332 gain3 0.1;
#X msg 184 361 gain4 0.1;
#X connect 0 0 7 0;
#X connect 0 0 2 0;
#X connect 0 0 8 0;
#X connect 0 0 9 0;
#X connect 0 0 3 0;
#X connect 0 0 6 0;
#X connect 0 0 5 0;
#X connect 0 0 4 0;
#X connect 2 0 1 0;
#X connect 3 0 1 0;
#X connect 4 0 1 0;
#X connect 5 0 1 0;
#X connect 6 0 1 0;
#X connect 7 0 1 0;
#X connect 8 0 1 0;
#X connect 9 0 1 0;
#X restore 381 393 pd controls;
#X obj 304 339 list prepend sel;
#X obj 252 252 list prepend rel;
#X obj 255 187 * 2;
#X obj 255 211 + 0.01;
#X obj 464 545 *~;
#X obj 808 256 sqrt;
#X obj 808 293 * 12;
#X obj 966 216 pow 2;
#X obj 966 305 lop~ 10;
#X obj 464 477 osc~ 0;
#X obj 969 256 * 5;
#X obj 255 163 r knob1-\$1;
#X obj 460 145 r knob2-\$1;
#X obj 981 48 r knob3-\$1;
#X obj 143 592 clone -s 1 voice~ 6 \$1;
#N canvas 348 68 826 778 poly 0;
#X obj 60 50 inlet;
#X text 130 50 Note \, velocity;
#X text 290 50 Output the results of poly \, and the number of active
notes., f 34;
#X obj 60 218 pack 0 0 0;
#X obj 60 566 unpack f f f;
#X obj 60 612 pack 0 0 0 0;
#X obj 286 376 route 1 2 3 4 5 6;
#X obj 275 424 > 0;
#X obj 243 536 expr $f2 + $f3 + $f4 + $f5 + $f6 + $f7;
#X obj 305 424 > 0;
#X obj 335 424 > 0;
#X obj 365 424 > 0;
#X obj 395 424 > 0;
#X obj 425 424 > 0;
#X obj 231 282 t b a;
#X obj 60 247 t a a;
#X msg 186 149 clear;
#X obj 197 120 r loadbang-s1;
#X obj 270 316 unpack f f f;
#X obj 270 345 pack f f;
#X obj 60 190 poly 5 1;
#X obj 60 641 outlet;
#X obj 243 640 outlet;
#X connect 0 0 20 0;
#X connect 3 0 15 0;
#X connect 4 0 5 0;
#X connect 4 1 5 1;
#X connect 4 2 5 2;
#X connect 5 0 21 0;
#X connect 6 0 7 0;
#X connect 6 1 9 0;
#X connect 6 2 10 0;
#X connect 6 3 11 0;
#X connect 6 4 12 0;
#X connect 6 5 13 0;
#X connect 7 0 8 1;
#X connect 8 0 22 0;
#X connect 9 0 8 2;
#X connect 10 0 8 3;
#X connect 11 0 8 4;
#X connect 12 0 8 5;
#X connect 13 0 8 6;
#X connect 14 0 8 0;
#X connect 14 1 18 0;
#X connect 15 0 4 0;
#X connect 15 1 14 0;
#X connect 16 0 20 0;
#X connect 17 0 16 0;
#X connect 18 0 19 0;
#X connect 18 2 19 1;
#X connect 19 0 6 0;
#X connect 20 0 3 0;
#X connect 20 1 3 1;
#X connect 20 2 3 2;
#X restore 190 420 pd poly;
#X obj 886 439 key;
#X obj 886 468 pack f 1;
#X obj 980 441 keyup;
#X obj 980 470 pack f 0;
#X obj 320 770 /~;
#X obj 340 630 max 1;
#X obj 340 730 line 0 10;
#X obj 340 670 t f b b;
#X msg 362 700 50;
#X msg 402 700 10;
#X text 447 666 Modify volume by number of active voices \, and ramp
it as that seems to help avoid glitches., f 26;
#X connect 0 0 17 0;
#X connect 1 0 0 0;
#X connect 4 0 9 0;
#X connect 4 0 32 0;
#X connect 13 0 14 0;
#X connect 15 0 1 0;
#X connect 16 0 13 0;
#X connect 17 0 13 0;
#X connect 18 0 13 0;
#X connect 19 0 20 0;
#X connect 20 0 18 0;
#X connect 22 0 23 0;
#X connect 23 0 26 0;
#X connect 24 0 27 0;
#X connect 25 0 21 1;
#X connect 26 0 21 0;
#X connect 27 0 25 0;
#X connect 28 0 19 0;
#X connect 29 0 15 0;
#X connect 30 0 24 0;
#X connect 30 0 22 0;
#X connect 31 0 37 0;
#X connect 32 0 31 0;
#X connect 32 1 38 0;
#X connect 33 0 34 0;
#X connect 35 0 36 0;
#X connect 37 0 12 0;
#X connect 37 0 11 0;
#X connect 38 0 40 0;
#X connect 39 0 37 1;
#X connect 40 0 39 0;
#X connect 40 1 41 0;
#X connect 40 2 42 0;
#X connect 41 0 39 1;
#X connect 42 0 39 2;
