#N canvas 160 24 1202 865 10;
#X obj 420 70 v global-bpm;
#X obj 420 95 v beat-clock;
#N canvas 564 108 814 718 run-clocks 0;
#X text 10 44 beat clock 0 to 359;
#X text 290 44 Set global bpm;
#X text 460 84 beat_interval_s = 1 / beats_per_s;
#X text 460 109 beat_per_s = bpm / 60;
#X text 460 134 beat_interval_ms = beat_interval_s * 1000;
#X text 460 159 Tharefore... beat_interval_ms = 1 / beats_per_s * 1000
;
#X text 460 184 = 1 / (bpm/60) * 1000;
#X obj 290 138 expr 60 / $f1 * 1000;
#X floatatom 330 163 5 0 0 0 - - -, f 5;
#X obj 290 186 s beat_int_ms;
#X obj 81 120 r beat_int_ms;
#X obj 24 207 bng 15 250 50 0 empty empty empty 17 7 0 10 #fcfcfc #000000
#000000;
#X obj 81 149 t f f;
#X obj 100 264 metro 1000;
#X obj 24 182 metro 1000;
#X obj 100 372 f 0;
#X obj 154 383 + 1;
#X obj 100 400 % 360;
#X floatatom 191 452 5 0 0 0 - - -, f 5;
#X obj 157 230 / 360;
#X floatatom 180 264 10 0 0 0 - - -, f 10;
#X obj 100 452 s beat-clock;
#X obj 120 319 f 0;
#X obj 290 100 r global-bpm;
#X obj 24 87 r loadbang-ext;
#X obj 71 230 r loadbang-ext;
#X obj 120 294 r loadbang-ext;
#X connect 7 0 8 0;
#X connect 7 0 9 0;
#X connect 10 0 12 0;
#X connect 12 0 14 1;
#X connect 12 1 19 0;
#X connect 13 0 15 0;
#X connect 14 0 11 0;
#X connect 15 0 17 0;
#X connect 16 0 15 1;
#X connect 17 0 16 0;
#X connect 17 0 21 0;
#X connect 17 0 18 0;
#X connect 19 0 13 1;
#X connect 19 0 20 0;
#X connect 22 0 15 1;
#X connect 23 0 7 0;
#X connect 24 0 14 0;
#X connect 25 0 13 0;
#X connect 26 0 22 0;
#X restore 420 40 pd run-clocks;
#X floatatom 240 183 5 1 270 0 - - -, f 5;
#X obj 240 210 s global-bpm;
#X obj 350 130 r beat-clock;
#X obj 350 155 select 0;
#X obj 350 180 bng 15 250 50 0 empty empty empty 17 7 0 10 #fcfcfc
#000000 #000000;
#X obj 240 155 f 60;
#X msg 580 215 symbol seq1;
#X obj 600 238 text define -k seq1;
#A set 0 69 100 1000 \; 1300 53 60 500;
#X text 580 187 A simple two-note sequence;
#X text 620 27 Data in these tests are: wait (ms) \, midi note \, vel
\, duration;
#X obj 620 57 bng 15 250 50 0 empty empty empty 17 7 0 10 #fcfcfc #000000
#000000;
#X text 70 200 For our module;
#X obj 50 240 s loadbang-ext;
#X obj 240 128 r loadbang-ext;
#X obj 50 446 module s1;
#X obj 200 500 r notesOut-s1;
#X obj 70 176 s loadbang-s1;
#X obj 50 130 t b;
#X obj 50 64 loadbang;
#X obj 110 64 r test-loadbang;
#X obj 620 112 s test-loadbang;
#X text 60 261 For external to our module;
#N canvas 436 200 650 514 play-seq 0;
#X obj 151 69 inlet;
#X text 200 70 symbol of sequence to play;
#X msg 90 123 line 0 \, auto;
#X obj 150 180 makenote;
#X obj 150 210 pack f f;
#X obj 151 94 t b s;
#X obj 150 153 text sequence dummy -w 1;
#X obj 150 238 outlet;
#X connect 0 0 5 0;
#X connect 2 0 6 0;
#X connect 3 0 4 0;
#X connect 3 1 4 1;
#X connect 4 0 7 0;
#X connect 5 0 2 0;
#X connect 5 1 6 1;
#X connect 6 0 3 0;
#X restore 50 368 pd play-seq;
#X obj 50 340 r play-seq;
#X obj 50 395 s notesIn-s1;
#X obj 580 262 s play-seq;
#X obj 820 265 s play-seq;
#X obj 660 57 r test-reset;
#X obj 61 555 dac~;
#X text 130 446 Our module in slot 1 \, sends to notesOut-\$1 \, plus
outlets;
#X text 749 57 Bang to reset (when testing);
#X obj 620 83 t b;
#X obj 840 239 text define -k six-notes;
#A set 0 50 75 3000 \; 1000 55 75 500 \; 100 60 75 500 \; 100 65 75
500 \; 100 70 75 500 \; 100 75 75 500;
#X msg 820 215 symbol six-notes;
#X text 820 176 To test six note polyphony. There should be a low note
still playing at the end., f 42;
#X obj 580 390 s play-seq;
#X text 580 315 A single note;
#X msg 580 343 symbol one-note;
#X obj 600 366 text define -k one-note;
#A set 0 69 100 3000 \;;
#X connect 3 0 4 0;
#X connect 5 0 6 0;
#X connect 6 0 7 0;
#X connect 8 0 3 0;
#X connect 9 0 28 0;
#X connect 13 0 34 0;
#X connect 16 0 8 0;
#X connect 17 0 31 0;
#X connect 17 1 31 1;
#X connect 20 0 15 0;
#X connect 20 0 19 0;
#X connect 21 0 20 0;
#X connect 22 0 20 0;
#X connect 25 0 27 0;
#X connect 26 0 25 0;
#X connect 30 0 34 0;
#X connect 34 0 23 0;
#X connect 36 0 29 0;
#X connect 40 0 38 0;
