#N canvas 432 132 658 650 12;
#X obj 30 27 inlet;
#X obj 30 55 unpack 0 0, f 14;
#X obj 143 84 / 127;
#X obj 36 178 osc~;
#X obj 146 197 r loadbang-s1;
#X msg 146 226 0;
#X obj 36 477 *~;
#X obj 30 84 mtof;
#X obj 36 506 outlet~;
#X text 310 40 \$1 is voice number (from 1) \, \$2 is module id.;
#X text 90 27 Note \, velocity;
#N canvas 468 304 586 306 delay 1;
#X obj 80 20 inlet~;
#X obj 73 261 outlet~;
#X text 170 20 \$1 is voice number (from 1) \, \$2 is module id.;
#X obj 100 218 s~ delay-feedback-\$1-\$2;
#X obj 140 90 r~ delay-feedback-\$1-\$2;
#X obj 100 120 delwrite~ delay-\$1-\$2 5000;
#X obj 100 189 *~ 0.5;
#X obj 100 160 delread~ delay-\$1-\$2 25;
#X connect 0 0 1 0;
#X connect 4 0 5 0;
#X connect 6 0 1 0;
#X connect 6 0 3 0;
#X connect 7 0 6 0;
#X restore 45 223 pd delay;
#X obj 100 400 line 0 10;
#X obj 117 312 t f b b;
#X msg 139 360 50;
#X msg 179 360 10;
#X connect 0 0 1 0;
#X connect 1 0 7 0;
#X connect 1 1 2 0;
#X connect 2 0 13 0;
#X connect 3 0 11 0;
#X connect 4 0 5 0;
#X connect 5 0 13 0;
#X connect 6 0 8 0;
#X connect 7 0 3 0;
#X connect 11 0 6 0;
#X connect 12 0 6 1;
#X connect 13 0 12 0;
#X connect 13 1 14 0;
#X connect 13 2 15 0;
#X connect 14 0 12 1;
#X connect 15 0 12 2;
