#N canvas 236 104 1050 706 12;
#X obj 110 27 inlet;
#X obj 110 55 unpack 0 0, f 14;
#X obj 213 84 / 127;
#X obj 107 238 osc~;
#X obj 266 567 r loadbang-s1;
#X msg 266 596 0;
#X obj 106 637 *~;
#X obj 110 84 mtof;
#X obj 106 666 outlet~;
#X text 380 40 \$1 is voice number (from 1) \, \$2 is module id.;
#X text 170 20 Note \, velocity;
#X obj 364 211 t f f;
#X obj 403 239 * 0.8;
#X obj 367 275 list append;
#X text 470 220 Envelope: 50ms to full volume \, 50ms to 0.8 volume
\, then slow decline., f 26;
#X obj 250 140 select 0;
#X obj 250 370 vline~;
#X obj 453 100 inlet;
#X text 470 130 Sustain;
#X obj 380 310 list append;
#X obj 590 100 inlet;
#X obj 590 129 s shape-\$1-\$2;
#X obj 342 400 r shape-\$1-\$2;
#X floatatom 620 400 5 0 0 0 - - -, f 5;
#X obj 620 428 pow 0.5;
#X floatatom 620 457 5 0 0 0 - - -, f 5;
#X obj 260 510 expr~ pow(abs($v1) \, $f2) * if($v1 < 1 \, -1 \, 1)
;
#X obj 30 450 expr~ pow(abs($v1) \, $f2) * if($v1 < 0 \, -1 \, 1);
#X msg 380 344 \$1 50 \, \$2 50 50 \, 0 \$3 250;
#X msg 250 301 0 250;
#X obj 763 131 inlet~;
#X obj 107 200 +~;
#X connect 0 0 1 0;
#X connect 1 0 7 0;
#X connect 1 1 2 0;
#X connect 2 0 15 0;
#X connect 3 0 27 0;
#X connect 4 0 5 0;
#X connect 5 0 6 1;
#X connect 6 0 8 0;
#X connect 7 0 31 1;
#X connect 11 0 13 0;
#X connect 11 1 12 0;
#X connect 12 0 13 1;
#X connect 13 0 19 0;
#X connect 15 0 29 0;
#X connect 15 1 11 0;
#X connect 16 0 6 1;
#X connect 17 0 19 1;
#X connect 19 0 28 0;
#X connect 20 0 21 0;
#X connect 22 0 27 1;
#X connect 23 0 24 0;
#X connect 24 0 25 0;
#X connect 27 0 6 0;
#X connect 28 0 16 0;
#X connect 29 0 16 0;
#X connect 30 0 31 0;
#X connect 31 0 3 0;
