#N canvas 533 -956 1275 488 12;
#X text 337 15 note;
#X obj 383 182 list prepend gain;
#X obj 440 135 list prepend gate;
#X obj 303 347 list trim;
#X obj 383 151 / 127;
#X obj 806 126 list prepend selector;
#X obj 562 297 list prepend osc1;
#X obj 610 338 list prepend osc2;
#X obj 779 331 list prepend osc4;
#X obj 709 303 list prepend osc3;
#X obj 256 42 unpack 0 0, f 14;
#X obj 351 73 t a a, f 11;
#X obj 626 389 s \$0-mess-2;
#X obj 303 312 r \$0-mess-2;
#X obj 806 161 s \$0-mess-2;
#X obj 383 220 s \$0-mess-2;
#X obj 440 105 > 0;
#X obj 351 110 sel 0;
#X obj 399 332 +~;
#X obj 957 389 s \$0-mess-2;
#X obj 941 281 list prepend att;
#X obj 1085 280 list prepend dec;
#X obj 941 336 list prepend sus;
#X obj 1090 339 list prepend rel;
#X obj 399 361 clip~ 1 127;
#X obj 303 376 R_mode_BL~;
#X obj 793 75 route sel gain1 gain2 gain3 gain4;
#X obj 995 123 route att sus dec rel;
#X obj 399 292 lop~ 1000;
#X obj 370 411 *~ 0.8;
#X obj 30 27 inlet;
#X obj 30 50 unpack 0 0, f 14;
#X obj 143 79 / 127;
#X obj 36 173 osc~;
#X obj 146 192 r loadbang-s1;
#X msg 146 221 0;
#X obj 36 302 *~;
#X obj 30 79 mtof;
#X obj 806 40 r X-inlet;
#X obj 680 83 r X-inlet~;
#X obj 256 17 r X-inlet;
#X obj 372 445 s~ X-outlet~;
#X obj 36 331 outlet~;
#X obj 73 124 print VOICE_\$1;
#X connect 1 0 15 0;
#X connect 2 0 15 0;
#X connect 3 0 25 0;
#X connect 4 0 1 0;
#X connect 5 0 14 0;
#X connect 6 0 12 0;
#X connect 7 0 12 0;
#X connect 8 0 12 0;
#X connect 9 0 12 0;
#X connect 10 0 28 0;
#X connect 10 1 11 0;
#X connect 11 0 17 0;
#X connect 11 1 16 0;
#X connect 13 0 3 0;
#X connect 16 0 2 0;
#X connect 17 1 4 0;
#X connect 18 0 24 0;
#X connect 20 0 19 0;
#X connect 21 0 19 0;
#X connect 22 0 19 0;
#X connect 23 0 19 0;
#X connect 25 1 29 0;
#X connect 26 0 5 0;
#X connect 26 1 6 0;
#X connect 26 2 7 0;
#X connect 26 3 9 0;
#X connect 26 4 8 0;
#X connect 26 5 27 0;
#X connect 27 0 20 0;
#X connect 27 1 22 0;
#X connect 27 2 21 0;
#X connect 27 3 23 0;
#X connect 28 0 18 0;
#X connect 29 0 41 0;
#X connect 30 0 31 0;
#X connect 30 0 43 0;
#X connect 31 0 37 0;
#X connect 31 1 32 0;
#X connect 32 0 36 1;
#X connect 33 0 36 0;
#X connect 34 0 35 0;
#X connect 35 0 36 1;
#X connect 36 0 42 0;
#X connect 37 0 33 0;
#X connect 38 0 26 0;
#X connect 39 0 18 1;
#X connect 40 0 10 0;
