#N canvas 122 212 653 490 12;
#X obj 30 27 inlet;
#X obj 30 55 unpack 0 0, f 14;
#X obj 143 84 / 127;
#X obj 36 178 osc~;
#X obj 146 197 r loadbang-s1;
#X msg 146 226 0;
#X obj 36 307 *~;
#X obj 30 84 mtof;
#X obj 36 336 outlet~;
#X obj 73 129 print VOICE_\$1;
#X text 310 40 \$1 is voice number (from 1) \, \$2 is module id.;
#X text 90 27 Note \, velocity;
#X connect 0 0 1 0;
#X connect 0 0 9 0;
#X connect 1 0 7 0;
#X connect 1 1 2 0;
#X connect 2 0 6 1;
#X connect 3 0 6 0;
#X connect 4 0 5 0;
#X connect 5 0 6 1;
#X connect 6 0 8 0;
#X connect 7 0 3 0;
