#N canvas 702 -1173 1046 701 12;
#X obj 50 27 inlet;
#X obj 50 55 unpack 0 0, f 14;
#X obj 213 84 / 127;
#X obj 47 178 osc~;
#X obj 266 567 r loadbang-s1;
#X msg 266 596 0;
#X obj 106 637 *~;
#X obj 50 84 mtof;
#X obj 106 666 outlet~;
#X text 380 40 \$1 is voice number (from 1) \, \$2 is module id.;
#X text 160 27 Note \, velocity;
#N canvas 468 304 586 306 delay 0;
#X obj 80 20 inlet~;
#X obj 73 261 outlet~;
#X text 170 20 \$1 is voice number (from 1) \, \$2 is module id.;
#X obj 100 218 s~ delay-feedback-\$1-\$2;
#X obj 140 90 r~ delay-feedback-\$1-\$2;
#X obj 100 120 delwrite~ delay-\$1-\$2 5000;
#X obj 100 189 *~ 0.5;
#X obj 100 160 delread~ delay-\$1-\$2 100;
#X connect 0 0 1 0;
#X connect 0 0 5 0;
#X connect 4 0 5 0;
#X connect 6 0 1 0;
#X connect 6 0 3 0;
#X connect 7 0 6 0;
#X restore 125 283 pd delay;
#X obj 364 211 t f f;
#X obj 403 239 * 0.8;
#X obj 367 275 list append;
#X obj 125 250 *~ 0.5;
#X text 470 220 Envelope: 50ms to full volume \, 50ms to 0.8 volume
\, then slow decline., f 26;
#X obj 250 140 select 0;
#X msg 250 301 0 50;
#X obj 250 370 vline~;
#X obj 453 100 inlet;
#X text 470 130 Sustain;
#X obj 380 310 list append;
#X msg 380 344 \$1 50 \, \$2 50 50 \, 0 \$3 100;
#X obj 590 100 inlet;
#X obj 590 129 s shape-\$1-\$2;
#X obj 130 340 r shape-\$1-\$2;
#X floatatom 620 400 5 0 0 0 - - -, f 5;
#X obj 620 428 pow 0.5;
#X floatatom 620 457 5 0 0 0 - - -, f 5;
#X obj 260 510 expr~ pow(abs($v1) \, $f2) * if($v1 < 1 \, -1 \, 1)
;
#X obj 30 420 expr~ pow(abs($v1) \, $f2) * if($v1 < 0 \, -1 \, 1);
#X connect 0 0 1 0;
#X connect 1 0 7 0;
#X connect 1 1 2 0;
#X connect 2 0 17 0;
#X connect 3 0 31 0;
#X connect 4 0 5 0;
#X connect 5 0 6 1;
#X connect 6 0 8 0;
#X connect 7 0 3 0;
#X connect 12 0 14 0;
#X connect 12 1 13 0;
#X connect 13 0 14 1;
#X connect 14 0 22 0;
#X connect 15 0 11 0;
#X connect 17 0 18 0;
#X connect 17 1 12 0;
#X connect 18 0 19 0;
#X connect 19 0 6 1;
#X connect 20 0 22 1;
#X connect 22 0 23 0;
#X connect 23 0 19 0;
#X connect 24 0 25 0;
#X connect 26 0 31 1;
#X connect 27 0 28 0;
#X connect 28 0 29 0;
#X connect 31 0 6 0;
