#N canvas 208 36 1050 918 12;
#X obj 110 27 inlet;
#X obj 110 55 unpack 0 0, f 14;
#X obj 213 84 / 127;
#X obj 107 238 osc~;
#X obj 270 881 r loadbang-s1;
#X msg 270 920 0;
#X obj 106 987 *~;
#X obj 110 84 mtof;
#X obj 110 1020 outlet~;
#X text 380 40 \$1 is voice number (from 1) \, \$2 is module id.;
#X text 170 20 Note \, velocity;
#X obj 364 211 t f f;
#X obj 403 239 * 0.8;
#X obj 367 275 list append;
#X text 460 200 Envelope: 50ms to full volume \, 50ms to 0.8 volume
\, then slow decline., f 26;
#X obj 250 140 select 0;
#X obj 254 724 vline~;
#X obj 453 100 inlet;
#X text 470 130 Sustain;
#X obj 380 360 list append;
#X obj 590 100 inlet;
#X obj 590 129 s shape-\$1-\$2;
#X obj 356 724 r shape-\$1-\$2;
#X obj 264 824 expr~ pow(abs($v1) \, $f2) * if($v1 < 1 \, -1 \, 1)
;
#X obj 34 764 expr~ pow(abs($v1) \, $f2) * if($v1 < 0 \, -1 \, 1);
#X obj 763 131 inlet~;
#X obj 107 200 +~;
#X msg 404 678 \$1 50 \, \$2 50 50 \, 0 \$3 \$4;
#X msg 250 351 0 \$1;
#X text 470 280 \$1 = Vol \, \$2 = 0.8 vol;
#X text 480 360 \$3 = sustain;
#X text 500 540 \$4 = release;
#X obj 250 220 v release-\$2;
#X obj 470 470 v release-\$2;
#X obj 400 540 list append;
#X obj 272 255 print A;
#X obj 692 382 print LIST2;
#X obj 688 452 print LIST3;
#X obj 620 561 print 4thOFLIST;
#X obj 500 600 print LIST4;
#X obj 367 304 t a a;
#X obj 380 389 t a a;
#X obj 470 500 t a a;
#X obj 400 569 t a a;
#X obj 386 434 t a b;
#X connect 0 0 1 0;
#X connect 1 0 7 0;
#X connect 1 1 2 0;
#X connect 2 0 15 0;
#X connect 3 0 24 0;
#X connect 4 0 5 0;
#X connect 5 0 6 1;
#X connect 6 0 8 0;
#X connect 7 0 26 1;
#X connect 11 0 13 0;
#X connect 11 1 12 0;
#X connect 12 0 13 1;
#X connect 13 0 40 0;
#X connect 15 0 32 0;
#X connect 15 1 11 0;
#X connect 16 0 6 1;
#X connect 17 0 19 1;
#X connect 19 0 41 0;
#X connect 20 0 21 0;
#X connect 22 0 24 1;
#X connect 24 0 6 0;
#X connect 25 0 26 0;
#X connect 26 0 3 0;
#X connect 27 0 16 0;
#X connect 28 0 16 0;
#X connect 32 0 28 0;
#X connect 32 0 35 0;
#X connect 33 0 42 0;
#X connect 34 0 43 0;
#X connect 40 0 19 0;
#X connect 40 1 36 0;
#X connect 41 0 44 0;
#X connect 41 1 37 0;
#X connect 42 0 34 1;
#X connect 42 1 38 0;
#X connect 43 0 27 0;
#X connect 43 1 39 0;
#X connect 44 0 34 0;
#X connect 44 1 33 0;
